<svg xmlns="http://www.w3.org/2000/svg" version="1.1" xmlns:xlink="http://www.w3.org/1999/xlink" xmlns:svgjs="http://svgjs.dev/svgjs" width="1000" height="750" viewBox="0 0 1000 750"><rect width="1000" height="750" fill="#ffffff"></rect><g transform="matrix(0.6232657417289221,0,0,0.6232657417289221,188.36713772167383,83)"><svg viewBox="0 0 384 360" data-background-color="#ffffff" preserveAspectRatio="xMidYMid meet" height="937" width="1000" xmlns="http://www.w3.org/2000/svg" xmlns:xlink="http://www.w3.org/1999/xlink"><g id="tight-bounds" transform="matrix(1,0,0,1,0.000005289999990054639,0)"><svg viewBox="0 0 384 360" height="360" width="384"><g><svg></svg></g><g><svg viewBox="0 0 384 360" height="360" width="384"><g><path transform="translate(-42.61557,-54.61557) scale(4.69231,4.69231)" d="M86.305 42.635v-9.002c0-4.501-4.084-8.184-9.076-8.184h-19.864c-3.239 0-6.039-1.882-7.365-4.613-1.326 2.73-4.126 4.613-7.365 4.613h-19.864c-4.992 0-9.076 3.683-9.076 8.184v9.002c0 3.239-1.882 6.039-4.613 7.365 2.73 1.326 4.613 4.126 4.613 7.365v9.002c0 4.501 4.084 8.184 9.076 8.184h19.864c3.239 0 6.039 1.882 7.365 4.613 1.326-2.73 4.126-4.613 7.365-4.613h19.864c4.992 0 9.076-3.683 9.076-8.184v-9.002c0-3.239 1.882-6.039 4.613-7.365-2.73-1.326-4.613-4.126-4.613-7.365z" fill="#010c80" fill-rule="nonzero" stroke="none" stroke-width="1" stroke-linecap="butt" stroke-linejoin="miter" stroke-miterlimit="10" stroke-dasharray="" stroke-dashoffset="0" font-family="none" font-weight="none" font-size="none" text-anchor="none" style="mix-blend-mode: normal" data-fill-palette-color="tertiary"></path></g><g transform="matrix(1,0,0,1,111,99)"><svg viewBox="0 0 162 162" height="162" width="162"><g><svg viewBox="0 0 162 162" height="162" width="162"><g><svg viewBox="0 0 162 162" height="162" width="162"><g id="textblocktransform"><svg viewBox="0 0 162 162" height="162" width="162" id="textblock"><g><svg viewBox="0 0 162 162" height="162" width="162"><g transform="matrix(1,0,0,1,52.36217536194482,52.36217536194482)"><svg viewBox="0 0 57.27564927611036 57.27564927611036" height="57.27564927611036" width="57.27564927611036"><g><svg xmlns="http://www.w3.org/2000/svg" xmlns:xlink="http://www.w3.org/1999/xlink" version="1.0" x="0" y="0" viewBox="1 1 48 48" enable-background="new 0 0 50 50" xml:space="preserve" height="57.27564927611036" width="57.27564927611036" class="icon-kg-0" data-fill-palette-color="quaternary" id="kg-0"><g fill="#ffffff" data-fill-palette-color="quaternary"><g fill="#ffffff" data-fill-palette-color="quaternary"><rect x="1" y="1" fill="#ffffff" width="23" height="5" data-fill-palette-color="quaternary"></rect><rect x="1" y="10" fill="#ffffff" width="23" height="5" data-fill-palette-color="quaternary"></rect><rect x="1" y="19" fill="#ffffff" width="23" height="5" data-fill-palette-color="quaternary"></rect></g><g fill="#ffffff" data-fill-palette-color="quaternary"><rect x="26" y="26" fill="#ffffff" width="23" height="5" data-fill-palette-color="quaternary"></rect><rect x="26" y="35" fill="#ffffff" width="23" height="5" data-fill-palette-color="quaternary"></rect><rect x="26" y="44" fill="#ffffff" width="23" height="5" data-fill-palette-color="quaternary"></rect></g><g fill="#ffffff" data-fill-palette-color="quaternary"><rect x="19" y="26" fill="#ffffff" width="5" height="23" data-fill-palette-color="quaternary"></rect><rect x="10" y="26" fill="#ffffff" width="5" height="23" data-fill-palette-color="quaternary"></rect><rect x="1" y="26" fill="#ffffff" width="5" height="23" data-fill-palette-color="quaternary"></rect></g><g fill="#ffffff" data-fill-palette-color="quaternary"><rect x="44" y="1" fill="#ffffff" width="5" height="23" data-fill-palette-color="quaternary"></rect><rect x="35" y="1" fill="#ffffff" width="5" height="23" data-fill-palette-color="quaternary"></rect><rect x="26" y="1" fill="#ffffff" width="5" height="23" data-fill-palette-color="quaternary"></rect></g></g></svg></g></svg></g><g><path d="M4.733 52.355v0l2.085 1.206-0.718 1.068c-0.472 0.778-0.813 1.479-1.021 2.104v0c-0.287 0.861-0.02 1.429 0.802 1.703v0c0.319 0.106 0.659 0.053 1.021-0.159 0.359-0.206 0.702-0.51 1.027-0.911 0.325-0.402 0.703-0.821 1.133-1.259 0.428-0.431 0.861-0.829 1.301-1.192 0.447-0.361 0.975-0.606 1.586-0.736 0.61-0.129 1.244-0.084 1.9 0.135v0c1.314 0.439 2.199 1.205 2.655 2.301 0.463 1.097 0.438 2.414-0.075 3.95v0c-0.262 0.784-0.629 1.533-1.102 2.248-0.47 0.708-0.931 1.27-1.381 1.686v0l-1.766-1.493c0.927-0.994 1.582-2.062 1.963-3.204v0c0.217-0.65 0.238-1.211 0.061-1.68-0.176-0.47-0.5-0.784-0.972-0.942-0.465-0.155-0.925-0.075-1.377 0.242-0.453 0.317-0.904 0.733-1.353 1.249-0.447 0.51-0.926 1.012-1.439 1.508-0.513 0.495-1.12 0.859-1.821 1.093-0.706 0.225-1.448 0.208-2.226-0.053v0c-1.154-0.385-1.92-1.042-2.298-1.968-0.369-0.931-0.35-2.009 0.059-3.234 0.411-1.231 1.063-2.452 1.956-3.662z" fill="#ffffff" data-fill-palette-color="quaternary"></path><path d="M21.638 48.64l-1.367 2.551-10.329-5.531-1.528 2.853-2.071-1.109 4.403-8.223 2.071 1.109-1.509 2.818z" fill="#ffffff" data-fill-palette-color="quaternary"></path><path d="M21.732 37.55v0l-0.148 0.191 4.82 3.724-1.782 2.306-11.132-8.6 2.725-3.527c0.925-1.197 1.878-1.892 2.86-2.085 0.987-0.189 1.967 0.093 2.941 0.845v0c0.596 0.46 0.981 1.089 1.155 1.886 0.169 0.793 0.06 1.516-0.326 2.17v0c0.446-0.335 0.895-0.515 1.347-0.54 0.452-0.024 1.08 0.07 1.884 0.283v0l4.933 1.301-1.831 2.37-4.757-1.215c-0.678-0.167-1.196-0.189-1.554-0.067-0.358 0.123-0.736 0.442-1.135 0.958zM17.977 33.107v0l-0.894 1.157 2.69 2.078 0.77-0.997c0.329-0.426 0.447-0.865 0.356-1.318-0.092-0.453-0.34-0.836-0.744-1.149v0c-0.835-0.645-1.561-0.569-2.178 0.229z" fill="#ffffff" data-fill-palette-color="quaternary"></path><path d="M37.427 26.618l1.559 1.704-6.181 5.657-9.498-10.376 6.181-5.658 1.559 1.703-4.031 3.69 1.995 2.18 3.659-3.35 1.587 1.733-3.66 3.35 2.798 3.057z" fill="#ffffff" data-fill-palette-color="quaternary"></path><path d="M39.451 11.477l10.96 9.79-2.47 1.508-2.652-2.41-3.615 2.206 0.948 3.45-2.385 1.456-3.722-14.209zM40.97 20.296l2.66-1.624-4.341-4.131z" fill="#ffffff" data-fill-palette-color="quaternary"></path><path d="M59.036 2.939l4.944 13.17-2.728 1.024-3.066-8.166-0.444 5.962-2.369 0.889-4.251-4.177 3.059 8.147-2.709 1.017-4.945-13.169 2.899-1.088 6.017 5.786 0.864-8.37z" fill="#ffffff" data-fill-palette-color="quaternary"></path><path d="M74.503 11.95l0.392 2.275-8.218 1.417-2.39-13.862 2.872-0.495 1.998 11.586z" fill="#ffffff" data-fill-palette-color="quaternary"></path><path d="M78.833 0l0.808 14.044-2.909 0.167-0.808-14.044z" fill="#ffffff" data-fill-palette-color="quaternary"></path><path d="M94.971 1.101l-1.225 14.034-3.044-0.266-3.988-9.043-0.752 8.609-2.963-0.258 1.223-14.014 2.963 0.259 4.093 9.477 0.789-9.051z" fill="#ffffff" data-fill-palette-color="quaternary"></path><path d="M105.755 16.112l-0.632 2.221-8.06-2.294 3.85-13.529 8.06 2.293-0.632 2.221-5.257-1.496-0.809 2.842 4.772 1.358-0.643 2.26-4.772-1.358-1.134 3.986z" fill="#ffffff" data-fill-palette-color="quaternary"></path><path d="M121.12 17.84v0c-1.014 2.026-2.417 3.365-4.209 4.016-1.795 0.643-3.676 0.472-5.641-0.512v0l-3.337-1.67 6.297-12.579 3.895 1.95c1.785 0.894 2.947 2.155 3.484 3.785 0.531 1.627 0.368 3.297-0.489 5.01zM118.474 16.346v0c0.566-1.13 0.705-2.173 0.416-3.129-0.285-0.947-0.861-1.637-1.726-2.071v0l-1.434-0.717-4.229 8.449 0.964 0.483c1.01 0.506 2.076 0.502 3.198-0.012 1.125-0.505 2.062-1.505 2.811-3.003z" fill="#ffffff" data-fill-palette-color="quaternary"></path><path d="M133.054 26.983v0c-1.392 1.787-3.03 2.825-4.915 3.112-1.886 0.278-3.697-0.259-5.432-1.609v0l-2.943-2.292 8.642-11.099 3.437 2.676c1.575 1.227 2.467 2.692 2.674 4.395 0.202 1.699-0.286 3.305-1.463 4.817zM130.752 24.999v0c0.776-0.997 1.117-1.993 1.022-2.987-0.094-0.985-0.523-1.774-1.286-2.37v0l-1.265-0.985-5.805 7.455 0.851 0.663c0.891 0.694 1.937 0.899 3.138 0.616 1.202-0.274 2.317-1.072 3.345-2.392z" fill="#ffffff" data-fill-palette-color="quaternary"></path><path d="M133.252 38.81v0c-1.275-1.501-1.722-3.075-1.34-4.723 0.391-1.647 1.389-3.152 2.992-4.514 1.603-1.362 3.236-2.088 4.899-2.177 1.667-0.084 3.135 0.622 4.406 2.118 1.271 1.496 1.731 3.059 1.379 4.69-0.348 1.636-1.323 3.136-2.927 4.498v0c-2.198 1.867-4.349 2.544-6.453 2.03v0c-1.113-0.272-2.098-0.912-2.956-1.922zM142.469 31.032v0c-0.461-0.543-1.038-0.838-1.731-0.885v0c-1.203-0.098-2.515 0.456-3.934 1.662v0c-1.076 0.914-1.797 1.871-2.165 2.872-0.377 1-0.237 1.886 0.421 2.659 0.653 0.768 1.506 1.04 2.559 0.816 1.048-0.22 2.092-0.772 3.132-1.655 1.035-0.879 1.735-1.831 2.099-2.856 0.36-1.02 0.232-1.891-0.381-2.613z" fill="#ffffff" data-fill-palette-color="quaternary"></path><path d="M141.141 50.375v0c-1.015-1.782-1.232-3.468-0.653-5.059 0.589-1.588 1.844-2.93 3.766-4.024 1.922-1.094 3.727-1.457 5.414-1.088 1.691 0.375 3.048 1.46 4.069 3.253v0c0.556 0.976 0.943 2.043 1.162 3.203v0l-2.242 0.627c-0.102-0.886-0.428-1.81-0.976-2.775-0.552-0.97-1.348-1.518-2.388-1.645-1.049-0.13-2.219 0.173-3.51 0.907-1.297 0.738-2.196 1.591-2.698 2.558-0.511 0.964-0.5 1.913 0.032 2.848v0c0.396 0.695 1.191 1.561 2.385 2.599v0l-1.484 1.529c-1.21-0.711-2.169-1.689-2.877-2.933z" fill="#ffffff" data-fill-palette-color="quaternary"></path><path d="M159.67 59.332v0l-2.385 0.335-0.093-1.284c-0.108-0.904-0.272-1.666-0.493-2.286v0c-0.304-0.855-0.865-1.137-1.682-0.846v0c-0.317 0.113-0.552 0.364-0.705 0.754-0.156 0.384-0.238 0.834-0.247 1.351-0.009 0.517-0.047 1.08-0.116 1.689-0.071 0.603-0.167 1.183-0.29 1.741-0.129 0.56-0.394 1.079-0.795 1.557-0.401 0.478-0.927 0.833-1.579 1.065v0c-1.305 0.464-2.474 0.406-3.509-0.175-1.041-0.579-1.833-1.631-2.376-3.157v0c-0.277-0.779-0.45-1.595-0.519-2.449-0.066-0.847-0.05-1.573 0.049-2.179v0l2.311 0.087c-0.117 1.355 0.026 2.599 0.429 3.733v0c0.23 0.646 0.559 1.1 0.988 1.361 0.428 0.261 0.877 0.309 1.345 0.142 0.462-0.165 0.774-0.511 0.936-1.04 0.162-0.528 0.26-1.134 0.295-1.817 0.037-0.677 0.105-1.368 0.204-2.074 0.098-0.706 0.352-1.367 0.76-1.984 0.417-0.612 1.012-1.056 1.785-1.331v0c1.146-0.408 2.154-0.364 3.023 0.134 0.865 0.506 1.514 1.366 1.947 2.582 0.435 1.222 0.674 2.586 0.717 4.091z" fill="#ffffff" data-fill-palette-color="quaternary"></path><path d="M20.948 108.241v0l-2.391 0.288-0.068-1.285c-0.09-0.906-0.239-1.671-0.447-2.296v0c-0.287-0.861-0.842-1.154-1.665-0.879v0c-0.319 0.106-0.559 0.353-0.721 0.74-0.163 0.381-0.255 0.829-0.273 1.346-0.019 0.517-0.069 1.079-0.149 1.687-0.083 0.602-0.191 1.18-0.325 1.735-0.14 0.557-0.415 1.071-0.825 1.54-0.41 0.47-0.943 0.815-1.6 1.034v0c-1.314 0.439-2.482 0.357-3.504-0.243-1.029-0.599-1.8-1.667-2.314-3.204v0c-0.262-0.784-0.419-1.604-0.47-2.458-0.049-0.848-0.019-1.574 0.091-2.178v0l2.309 0.133c-0.144 1.352-0.025 2.599 0.356 3.74v0c0.217 0.65 0.537 1.11 0.961 1.38 0.423 0.27 0.871 0.326 1.342 0.168 0.465-0.155 0.784-0.496 0.956-1.021 0.172-0.525 0.282-1.129 0.331-1.811 0.051-0.676 0.132-1.366 0.244-2.07 0.112-0.704 0.379-1.36 0.8-1.967 0.429-0.604 1.033-1.036 1.81-1.296v0c1.154-0.385 2.161-0.321 3.02 0.193 0.855 0.523 1.487 1.396 1.896 2.62 0.411 1.231 0.623 2.599 0.636 4.104z" fill="#ffffff" data-fill-palette-color="quaternary"></path><path d="M12.777 122.115l-1.366-2.552 10.33-5.531-1.528-2.854 2.071-1.109 4.403 8.223-2.071 1.109-1.509-2.818z" fill="#ffffff" data-fill-palette-color="quaternary"></path><path d="M23.45 127.132v0l-0.148-0.191-4.82 3.724-1.781-2.307 11.131-8.6 2.725 3.527c0.925 1.197 1.357 2.295 1.296 3.294-0.066 1.003-0.586 1.88-1.56 2.632v0c-0.596 0.46-1.301 0.674-2.117 0.641-0.81-0.037-1.482-0.324-2.017-0.862v0c0.212 0.516 0.272 0.996 0.182 1.439-0.09 0.444-0.34 1.027-0.75 1.752v0l-2.504 4.444-1.831-2.37 2.378-4.295c0.333-0.614 0.485-1.11 0.456-1.487-0.028-0.377-0.242-0.824-0.64-1.341zM28.697 124.621v0l-0.894-1.157-2.69 2.078 0.771 0.997c0.329 0.426 0.724 0.651 1.186 0.677 0.462 0.026 0.895-0.118 1.298-0.43v0c0.835-0.645 0.945-1.367 0.328-2.165z" fill="#ffffff" data-fill-palette-color="quaternary"></path><path d="M33.759 143.399l-1.559 1.703-6.181-5.658 9.497-10.376 6.181 5.657-1.559 1.704-4.031-3.69-1.995 2.179 3.66 3.35-1.587 1.733-3.659-3.35-2.799 3.058z" fill="#ffffff" data-fill-palette-color="quaternary"></path><path d="M48.871 139.097l-3.696 14.224-2.47-1.507 0.931-3.461-3.616-2.206-2.634 2.42-2.385-1.455 10.935-9.806zM41.723 144.481l2.659 1.623 1.69-5.75z" fill="#ffffff" data-fill-palette-color="quaternary"></path><path d="M65.392 146.141l-4.945 13.169-2.728-1.024 3.066-8.166-4.257 4.196-2.37-0.889-0.451-5.943-3.059 8.147-2.709-1.017 4.945-13.169 2.898 1.088 0.722 8.317 6.16-5.733z" fill="#ffffff" data-fill-palette-color="quaternary"></path><path d="M73.58 159.413l-0.392 2.276-8.218-1.417 2.39-13.862 2.872 0.495-1.998 11.586z" fill="#ffffff" data-fill-palette-color="quaternary"></path><path d="M79.872 147.956l-0.808 14.044-2.91-0.167 0.809-14.044z" fill="#ffffff" data-fill-palette-color="quaternary"></path><path d="M93.399 146.894l1.224 14.033-3.044 0.266-5.494-8.215 0.751 8.609-2.963 0.258-1.223-14.013 2.963-0.259 5.672 8.625-0.79-9.051z" fill="#ffffff" data-fill-palette-color="quaternary"></path><path d="M107.241 155.123l0.632 2.221-8.059 2.293-3.85-13.53 8.059-2.293 0.632 2.221-5.256 1.496 0.808 2.842 4.772-1.358 0.643 2.259-4.772 1.358 1.135 3.986z" fill="#ffffff" data-fill-palette-color="quaternary"></path><path d="M118.866 143.667v0c1.014 2.026 1.245 3.951 0.693 5.777-0.561 1.822-1.825 3.225-3.791 4.209v0l-3.336 1.67-6.297-12.579 3.896-1.95c1.785-0.894 3.491-1.067 5.118-0.521 1.621 0.549 2.86 1.681 3.717 3.394zM116.085 144.89v0c-0.566-1.13-1.318-1.866-2.256-2.208-0.929-0.339-1.827-0.292-2.692 0.141v0l-1.434 0.718 4.229 8.449 0.965-0.483c1.01-0.506 1.645-1.361 1.906-2.567 0.27-1.203 0.03-2.552-0.718-4.049z" fill="#ffffff" data-fill-palette-color="quaternary"></path><path d="M129.961 135.055v0c1.392 1.787 1.996 3.63 1.812 5.528-0.193 1.897-1.157 3.521-2.891 4.871v0l-2.944 2.292-8.642-11.099 3.437-2.676c1.575-1.227 3.214-1.732 4.917-1.515 1.697 0.221 3.134 1.087 4.311 2.599zM127.473 136.8v0c-0.776-0.997-1.658-1.572-2.645-1.723-0.978-0.15-1.848 0.072-2.612 0.666v0l-1.265 0.985 5.804 7.455 0.852-0.663c0.891-0.694 1.346-1.658 1.365-2.891 0.029-1.232-0.471-2.509-1.499-3.829z" fill="#ffffff" data-fill-palette-color="quaternary"></path><path d="M141.065 133.838v0c-1.275 1.501-2.757 2.196-4.445 2.085-1.689-0.12-3.335-0.862-4.938-2.224-1.603-1.362-2.583-2.857-2.939-4.483-0.352-1.631 0.108-3.195 1.378-4.69 1.271-1.496 2.74-2.202 4.407-2.118 1.671 0.079 3.308 0.799 4.911 2.162v0c2.198 1.867 3.213 3.881 3.045 6.041v0c-0.088 1.142-0.561 2.218-1.419 3.227zM131.901 125.998v0c-0.461 0.543-0.659 1.16-0.594 1.851v0c0.098 1.203 0.856 2.408 2.275 3.614v0c1.076 0.914 2.137 1.472 3.184 1.673 1.047 0.211 1.9-0.071 2.557-0.845 0.653-0.768 0.784-1.654 0.392-2.657-0.386-0.999-1.1-1.94-2.14-2.824-1.035-0.879-2.087-1.416-3.157-1.61-1.065-0.19-1.904 0.076-2.517 0.798z" fill="#ffffff" data-fill-palette-color="quaternary"></path><path d="M150.085 120.728v0c-1.015 1.782-2.354 2.829-4.018 3.143-1.666 0.304-3.461-0.091-5.382-1.185-1.922-1.094-3.155-2.462-3.699-4.102-0.54-1.646-0.3-3.366 0.722-5.159v0c0.556-0.976 1.276-1.853 2.161-2.634v0l1.683 1.608c-0.71 0.54-1.339 1.292-1.887 2.256-0.552 0.97-0.618 1.934-0.197 2.893 0.423 0.968 1.281 1.82 2.571 2.555 1.297 0.738 2.489 1.077 3.576 1.015 1.09-0.053 1.901-0.546 2.433-1.48v0c0.396-0.695 0.735-1.821 1.018-3.378v0l2.073 0.496c0.005 1.403-0.346 2.727-1.054 3.972z" fill="#ffffff" data-fill-palette-color="quaternary"></path><path d="M143.565 100.946v0l2.061 1.247-0.739 1.054c-0.488 0.768-0.842 1.463-1.063 2.083v0c-0.304 0.855-0.048 1.428 0.769 1.719v0c0.317 0.113 0.658 0.066 1.024-0.139 0.363-0.199 0.712-0.496 1.044-0.891 0.333-0.395 0.719-0.807 1.158-1.237 0.436-0.423 0.878-0.812 1.325-1.166 0.454-0.352 0.987-0.587 1.599-0.704 0.613-0.117 1.245-0.06 1.897 0.172v0c1.305 0.464 2.174 1.248 2.61 2.352 0.441 1.106 0.39 2.422-0.154 3.949v0c-0.277 0.779-0.659 1.521-1.145 2.225-0.484 0.698-0.956 1.251-1.414 1.659v0l-1.736-1.528c0.947-0.976 1.622-2.031 2.025-3.164v0c0.23-0.646 0.261-1.206 0.094-1.679-0.167-0.473-0.485-0.793-0.953-0.96-0.462-0.165-0.923-0.093-1.382 0.214-0.459 0.308-0.918 0.715-1.377 1.223-0.457 0.501-0.946 0.994-1.468 1.479-0.522 0.485-1.136 0.837-1.843 1.056-0.71 0.211-1.452 0.179-2.224-0.095v0c-1.146-0.408-1.899-1.079-2.259-2.014-0.351-0.938-0.31-2.016 0.123-3.232 0.435-1.222 1.111-2.43 2.028-3.623z" fill="#ffffff" data-fill-palette-color="quaternary"></path><path d="M2.037 83.005c0-3.011 2.441-5.451 5.451-5.452 3.011 0 5.451 2.441 5.452 5.452 0 3.011-2.441 5.451-5.452 5.451-3.011 0-5.451-2.441-5.451-5.451z" fill="#ffffff" data-fill-palette-color="quaternary"></path><path d="M149.06 83.005c0-3.011 2.441-5.451 5.452-5.452 3.011 0 5.451 2.441 5.451 5.452 0 3.011-2.441 5.451-5.451 5.451-3.011 0-5.451-2.441-5.452-5.451z" fill="#ffffff" data-fill-palette-color="quaternary"></path></g></svg></g></svg></g></svg></g><g></g></svg></g></svg></g></svg></g><defs></defs></svg><rect width="384" height="360" fill="none" stroke="none" visibility="hidden"></rect></g></svg></g></svg>